<svg xmlns="http://www.w3.org/2000/svg" width="249" height="17" viewBox="0 0 249 17">
  <g fill="#FFF" fill-rule="evenodd" transform="translate(0 -2)">
    <path d="M3.32656816,2.36028131 L0,2.36028131 L0,2.40559277 L10.9761215,11.6933356 L10.9761215,18.1408238 L13.4427529,18.1408238 L13.4427529,11.6480241 L24.4421759,2.40559277 L24.4421759,2.36028131 L21.1832931,2.36028131 L12.2665814,9.88861353 L3.32656816,2.36028131 L3.32656816,2.36028131 Z M36.6177705,2.26965841 L25.1889339,18.1408238 L27.9052244,18.1408238 L30.7113921,14.1722036 L45.6931544,14.1722036 L48.5226236,18.1408238 L51.3742848,18.1408238 L39.9443386,2.26965841 L36.6177705,2.26965841 L36.6177705,2.26965841 Z M38.2244652,3.64557937 L44.2673238,12.1652378 L32.1372227,12.1652378 L38.2244652,3.64557937 L38.2244652,3.64557937 Z M68.2800862,18.5 C72.738442,18.5 76.2236824,17.5075687 78.1477215,16.5383456 L78.1477215,14.3302411 C75.8841461,15.5249163 72.2180416,16.4941393 68.2800862,16.4941393 C64.6583655,16.4941393 61.5581549,15.8409913 60.064639,14.3523443 C59.0915235,13.3599129 58.593315,12.0304086 58.593315,10.25 C58.593315,8.46959143 59.0915235,7.09477562 60.064639,6.12555258 C61.5581549,4.63690556 64.6583655,4.00696584 68.3022781,4.00696584 C72.2180416,4.00696584 75.8841461,5.02150033 78.1477215,6.28248493 L78.1477215,3.96165439 C76.2236824,2.99243135 72.738442,2 68.2800862,2 C62.6444492,2 59.6796093,3.30850636 58.1860933,4.79494307 C56.8057562,6.17086403 56.1266836,8.08610181 56.1266836,10.25 C56.1266836,12.4138982 56.8057562,14.3302411 58.1860933,15.7061621 C59.6796093,17.1925988 62.6444492,18.5 68.2800862,18.5 L68.2800862,18.5 Z M88.9884723,9.1448426 L88.9884723,2.36028131 L86.5440328,2.36028131 L86.5440328,18.1408238 L88.9884723,18.1408238 L88.9884723,11.1739116 L106.460168,11.1739116 L106.460168,18.1408238 L108.926799,18.1408238 L108.926799,2.36028131 L106.460168,2.36028131 L106.460168,9.1448426 L88.9884723,9.1448426 L88.9884723,9.1448426 Z M139.819055,2.36028131 L116.169131,2.36028131 L116.169131,4.3893503 L126.760222,4.3893503 L126.760222,18.1408238 L129.225744,18.1408238 L129.225744,4.3893503 L139.819055,4.3893503 L139.819055,2.36028131 L139.819055,2.36028131 Z M149.528018,16.0874414 L149.528018,2.36028131 L147.083579,2.36028131 L147.083579,18.1408238 L166.411628,18.1408238 L166.411628,16.0874414 L149.528018,16.0874414 L149.528018,16.0874414 Z M174.082263,18.1408238 L176.526703,18.1408238 L176.526703,2.36028131 L174.082263,2.36028131 L174.082263,18.1408238 Z M188.543625,9.46091762 L188.543625,4.3893503 L205.972046,4.3893503 L205.972046,2.36028131 L186.101405,2.36028131 L186.101405,18.1408238 L188.543625,18.1408238 L188.543625,11.4446752 L205.653592,11.4446752 L205.653592,9.46091762 L188.543625,9.46091762 L188.543625,9.46091762 Z M216.404466,9.16915606 L216.404466,4.3893503 L234.328876,4.3893503 L234.328876,2.36028131 L213.982218,2.36028131 L213.982218,18.1408238 L234.328876,18.1408238 L234.328876,16.1117549 L216.404466,16.1117549 L216.404466,11.1518084 L234.012641,11.1518084 L234.012641,9.16915606 L216.404466,9.16915606 L216.404466,9.16915606 Z"/>
    <text font-family="HelveticaNeue, Helvetica Neue" font-size="13">
      <tspan x="238.956" y="12">®</tspan>
    </text>
  </g>
</svg>